<?xml version="1.0" encoding="UTF-8"?>
<svg version="1.1" xmlns="http://www.w3.org/2000/svg" width="156" height="164">
<path d="M0 0 C51.48 0 102.96 0 156 0 C156 54.12 156 108.24 156 164 C104.52 164 53.04 164 0 164 C0 109.88 0 55.76 0 0 Z " fill="#FCFDFD" transform="translate(0,0)"/>
<path d="M0 0 C3.75534911 4.35339066 6.49848197 9.07924481 9.3125 14.0625 C10.08376221 15.41952026 10.08376221 15.41952026 10.87060547 16.80395508 C15.90350999 25.7189795 20.72746639 34.74471824 25.53857422 43.78051758 C30.58276498 53.24967849 35.74250365 62.64784179 41 72 C36.90386864 73.36537712 35.3057492 72.14260992 31.36328125 70.47265625 C30.40412056 70.07100502 30.40412056 70.07100502 29.42558289 69.66123962 C27.3839994 68.80389961 25.34832294 67.93341848 23.3125 67.0625 C21.92940495 66.47894358 20.54594532 65.89625044 19.16210938 65.31445312 C15.7704519 63.88629534 12.38396761 62.44629935 9 61 C8.95174072 61.74443359 8.90348145 62.48886719 8.85375977 63.25585938 C6.30298432 98.28540099 -10.0000543 127.89967855 -30 156 C-30.55872803 156.92095459 -31.11745605 157.84190918 -31.69311523 158.79077148 C-34.46953077 161.44965435 -36.31967258 161.56840776 -40.09442139 161.56648254 C-40.88310608 161.54067612 -41.67179077 161.51486969 -42.484375 161.48828125 C-43.70776581 161.47766914 -43.70776581 161.47766914 -44.95587158 161.46684265 C-47.55485681 161.43890544 -50.15166872 161.37617281 -52.75 161.3125 C-54.51429175 161.28741605 -56.27861735 161.26460304 -58.04296875 161.24414062 C-62.36281356 161.18908154 -66.68103863 161.10281735 -71 161 C-68.9468962 157.48985479 -66.8710446 154.63202628 -64.0625 151.6875 C-39.51053566 124.82382474 -21.84230586 93.44701556 -18 57 C-19.27846802 57.26478149 -19.27846802 57.26478149 -20.58276367 57.53491211 C-23.76030742 58.1929244 -26.93788248 58.85078519 -30.11547852 59.50854492 C-31.48788683 59.79266433 -32.86028283 60.07684323 -34.23266602 60.36108398 C-36.21106744 60.77082907 -38.18951759 61.1803389 -40.16796875 61.58984375 C-41.95110474 61.95903931 -41.95110474 61.95903931 -43.77026367 62.33569336 C-46.51178965 62.89958271 -49.25475165 63.45457143 -52 64 C-52 63.34 -52 62.68 -52 62 C-51.34 62 -50.68 62 -50 62 C-49.75507812 61.44570312 -49.51015625 60.89140625 -49.2578125 60.3203125 C-47.74796208 57.53506049 -45.90832867 55.30507573 -43.875 52.875 C-40.28641986 48.55044714 -36.74102632 44.19891277 -33.23828125 39.8046875 C-31.51061675 37.63983041 -29.77850753 35.47884405 -28.04296875 33.3203125 C-26.98676527 32.00538011 -25.93077824 30.69027384 -24.875 29.375 C-24.35437988 28.72644043 -23.83375977 28.07788086 -23.29736328 27.40966797 C-20.65581686 24.10794599 -18.06264357 20.78604859 -15.5625 17.375 C-13.28336902 14.28991545 -10.74928079 11.68382173 -8 9 C-5.30345256 6.0262374 -2.64852248 3.01655538 0 0 Z " fill="#24798C" transform="translate(93,3)"/>
<path d="M0 0 C3.75534911 4.35339066 6.49848197 9.07924481 9.3125 14.0625 C10.08376221 15.41952026 10.08376221 15.41952026 10.87060547 16.80395508 C15.90350999 25.7189795 20.72746639 34.74471824 25.53857422 43.78051758 C30.58276498 53.24967849 35.74250365 62.64784179 41 72 C36.90386864 73.36537712 35.3057492 72.14260992 31.36328125 70.47265625 C30.40412056 70.07100502 30.40412056 70.07100502 29.42558289 69.66123962 C27.3839994 68.80389961 25.34832294 67.93341848 23.3125 67.0625 C21.92940495 66.47894358 20.54594532 65.89625044 19.16210938 65.31445312 C15.7704519 63.88629534 12.38396761 62.44629935 9 61 C8.95174072 61.74443359 8.90348145 62.48886719 8.85375977 63.25585938 C6.30298432 98.28540099 -10.0000543 127.89967855 -30 156 C-30.96667603 157.38143188 -30.96667603 157.38143188 -31.95288086 158.79077148 C-34 161 -34 161 -36.10644531 161.56762695 C-36.83959961 161.54144287 -37.57275391 161.51525879 -38.328125 161.48828125 C-39.12734375 161.47216797 -39.9265625 161.45605469 -40.75 161.43945312 C-41.575 161.39755859 -42.4 161.35566406 -43.25 161.3125 C-44.51070312 161.27866211 -44.51070312 161.27866211 -45.796875 161.24414062 C-47.86534964 161.18537714 -49.93290488 161.09569885 -52 161 C-48.79541872 156.54868568 -45.46973152 152.34936671 -41.75 148.3125 C-27.82447074 132.96409421 -15.30629928 114.87104022 -9.7734375 94.6796875 C-9.09940273 92.34439533 -8.32658953 90.08808916 -7.51953125 87.796875 C-5.92893743 83.03586727 -4.99788185 78.34167123 -4.3125 73.375 C-4.18584961 72.46073242 -4.05919922 71.54646484 -3.92871094 70.60449219 C-2.85816829 61.82373402 -2.73301465 53.08263957 -2.75 44.25 C-2.75077545 43.55525574 -2.7515509 42.86051147 -2.75234985 42.14471436 C-2.34197574 34.8640705 -2.34197574 34.8640705 -4 28 C-4.19380523 26.63908437 -4.34260176 25.27154378 -4.46484375 23.90234375 C-4.54283203 23.10119141 -4.62082031 22.30003906 -4.70117188 21.47460938 C-4.85905158 19.77968592 -5.01268081 18.0843613 -5.16210938 16.38867188 C-5.24138672 15.58880859 -5.32066406 14.78894531 -5.40234375 13.96484375 C-5.46929443 13.2287085 -5.53624512 12.49257324 -5.60522461 11.73413086 C-5.73550049 11.16186768 -5.86577637 10.58960449 -6 10 C-6.66 9.67 -7.32 9.34 -8 9 C-5.36 6.03 -2.72 3.06 0 0 Z " fill="#36A5A3" transform="translate(93,3)"/>
</svg>
